<?xml version="1.0" encoding="utf-8"?>
<!-- Generator: Adobe Illustrator 16.0.0, SVG Export Plug-In . SVG Version: 6.00 Build 0)  -->
<!DOCTYPE svg PUBLIC "-//W3C//DTD SVG 1.1//EN" "http://www.w3.org/Graphics/SVG/1.1/DTD/svg11.dtd">
<svg version="1.1" id="Shape_1_1_" xmlns="http://www.w3.org/2000/svg" xmlns:xlink="http://www.w3.org/1999/xlink" x="0px" y="0px"
	 width="60px" height="60px" viewBox="0 0 60 60" enable-background="new 0 0 60 60" xml:space="preserve">
<g id="Shape_1">
	<g>
		<path fill-rule="evenodd" clip-rule="evenodd" fill="#00A6ED" d="M58.471,34.565c-0.647-0.13-1.277,0.288-1.408,0.935
			C54.473,48.312,43.092,57.61,30,57.61C14.776,57.61,2.39,45.224,2.39,30S14.776,2.391,30,2.391c7.182,0,14.067,2.809,19.197,7.769
			h-3.089c-0.66,0-1.195,0.535-1.195,1.195s0.535,1.195,1.195,1.195h6.003c0.66,0,1.195-0.535,1.195-1.195V5.352
			c0-0.66-0.535-1.195-1.195-1.195s-1.195,0.535-1.195,1.195v3.146C45.336,3.073,37.831,0,30,0C21.987,0,14.453,3.12,8.787,8.786
			C3.121,14.453,0,21.986,0,30s3.121,15.547,8.787,21.214C14.453,56.88,21.987,60,30,60c6.965,0,13.752-2.44,19.11-6.873
			c5.286-4.374,8.942-10.465,10.294-17.153C59.535,35.327,59.117,34.696,58.471,34.565z M58.805,28.805
			c-0.66,0-1.195,0.535-1.195,1.195c0,0.268-0.004,0.537-0.012,0.803c-0.019,0.659,0.501,1.21,1.161,1.229
			c0.012,0,0.022,0.001,0.034,0.001c0.645,0,1.176-0.513,1.194-1.161C59.996,30.583,60,30.29,60,30
			C60,29.34,59.465,28.805,58.805,28.805z M14.431,38.704v3.693c0,0.608,0.686,0.989,1.18,0.989h13.552
			c0.495,0,0.914-0.57,0.914-1.18c0-0.61-0.419-1.143-0.914-1.143H17.02v-2.36c0-5.063,12.791-7.651,12.791-15.836
			c0-4.111-3.197-7.309-7.575-7.309c-4.035,0-7.157,2.664-7.157,6.318c0,1.143,0.381,1.562,1.142,1.562
			c0.875,0,1.332-0.533,1.332-1.028c0-3.007,1.979-4.491,4.606-4.491c3.502,0,5.139,2.626,5.139,5.024
			C27.298,29.606,14.431,32.385,14.431,38.704z M42.182,43.387c0.609,0,1.256-0.343,1.256-0.989v-5.559h2.094
			c0.572,0,0.952-0.608,0.952-1.218c0-0.572-0.305-1.181-0.952-1.181h-2.094v-7.347c0-0.647-0.646-0.952-1.256-0.952
			c-0.646,0-1.256,0.305-1.256,0.952v7.347h-7.461l8.793-17.358c0.076-0.19,0.115-0.343,0.115-0.495
			c0-0.609-0.725-1.027-1.219-1.027c-0.457,0-0.914,0.228-1.18,0.761l-9.556,18.844c-0.114,0.19-0.152,0.419-0.152,0.647
			c0,0.57,0.342,1.027,0.99,1.027h9.669v5.559C40.926,43.044,41.535,43.387,42.182,43.387z"/>
	</g>
</g>
</svg>
