<?xml version="1.0" encoding="utf-8"?>
<!-- Generator: Adobe Illustrator 16.0.0, SVG Export Plug-In . SVG Version: 6.00 Build 0)  -->
<!DOCTYPE svg PUBLIC "-//W3C//DTD SVG 1.1//EN" "http://www.w3.org/Graphics/SVG/1.1/DTD/svg11.dtd">
<svg version="1.1" id="Shape_1_1_" xmlns="http://www.w3.org/2000/svg" xmlns:xlink="http://www.w3.org/1999/xlink" x="0px" y="0px"
	 width="100px" height="61px" viewBox="0 0 100 61" enable-background="new 0 0 100 61" xml:space="preserve">
<g id="Shape_1">
	<g>
		<path fill-rule="evenodd" clip-rule="evenodd" fill="#00A6ED" d="M99.441,31.506c0.039-0.039,0.064-0.063,0.064-0.063
			L84.715,14.591c0,0-0.037,0.016-0.098,0.04c-0.365-0.438-0.916-0.719-1.532-0.719H70.351V1.988C70.351,0.89,69.459,0,68.359,0
			H5.723C4.623,0,3.73,0.89,3.73,1.988v43.67H1.992c-1.1,0-1.992,0.891-1.992,1.988s0.892,1.988,1.992,1.988H3.73v2.323
			c0,1.098,0.892,1.987,1.992,1.987h3.925C10.559,57.978,14.174,61,18.485,61s7.927-3.022,8.837-7.055h46.729
			C74.962,57.978,78.578,61,82.889,61c4.312,0,7.928-3.022,8.838-7.055h6.281c1.101,0,1.992-0.89,1.992-1.988V32.885
			C100,32.349,99.787,31.863,99.441,31.506z M18.485,57.023c-2.799,0-5.077-2.272-5.077-5.066c0-2.793,2.277-5.066,5.077-5.066
			s5.077,2.273,5.077,5.066C23.562,54.751,21.285,57.023,18.485,57.023z M66.367,49.97H27.323c-0.91-4.032-4.526-7.055-8.837-7.055
			s-7.927,3.022-8.837,7.055H7.714v-8.762h58.653V49.97z M66.367,37.231H7.714V3.976h58.653V37.231z M85.077,21.038l8.652,9.857
			h-8.652V21.038z M82.889,57.023c-2.799,0-5.076-2.272-5.076-5.066c0-2.793,2.277-5.066,5.076-5.066s5.076,2.273,5.076,5.066
			C87.965,54.751,85.688,57.023,82.889,57.023z M96.016,49.97h-4.289c-0.91-4.032-4.526-7.055-8.838-7.055s-7.927,3.022-8.838,7.055
			h-3.7V17.889h10.742v14.996c0,1.097,0.892,1.987,1.992,1.987h12.931V49.97z M44.82,35.072h16.733c1.101,0,1.991-0.891,1.991-1.987
			c0-1.098-0.891-1.989-1.991-1.989H44.82c-1.1,0-1.992,0.892-1.992,1.989C42.829,34.182,43.72,35.072,44.82,35.072z M37.45,35.072
			h1.195c1.1,0,1.992-0.891,1.992-1.987c0-1.098-0.892-1.989-1.992-1.989H37.45c-1.1,0-1.992,0.892-1.992,1.989
			C35.458,34.182,36.35,35.072,37.45,35.072z"/>
	</g>
</g>
</svg>
