<?xml version="1.0" encoding="utf-8"?>
<!-- Generator: Adobe Illustrator 16.0.0, SVG Export Plug-In . SVG Version: 6.00 Build 0)  -->
<!DOCTYPE svg PUBLIC "-//W3C//DTD SVG 1.1//EN" "http://www.w3.org/Graphics/SVG/1.1/DTD/svg11.dtd">
<svg version="1.1" id="Shape_1_1_" xmlns="http://www.w3.org/2000/svg" xmlns:xlink="http://www.w3.org/1999/xlink" x="0px" y="0px"
	 width="62px" height="61px" viewBox="0 0 62 61" enable-background="new 0 0 62 61" xml:space="preserve">
<g id="Shape_1">
	<g>
		<path fill-rule="evenodd" clip-rule="evenodd" fill="#00A6ED" d="M42.98,50.483c0.142,0,0.286-0.024,0.428-0.077l12.844-4.758
			c0.641-0.237,0.968-0.95,0.731-1.592c-0.236-0.643-0.946-0.971-1.587-0.734l-12.844,4.757c-0.641,0.237-0.968,0.95-0.731,1.593
			C42.006,50.173,42.478,50.483,42.98,50.483z M38.904,51.992c0.143,0,0.287-0.024,0.428-0.076l0.544-0.202
			c0.64-0.236,0.968-0.949,0.731-1.592c-0.236-0.644-0.947-0.972-1.586-0.734l-0.545,0.202c-0.64,0.236-0.967,0.949-0.73,1.592
			C37.93,51.683,38.402,51.992,38.904,51.992z M45.674,44.433c0.143,0,0.287-0.024,0.428-0.076l10.15-3.761
			c0.641-0.236,0.968-0.949,0.731-1.592s-0.946-0.971-1.587-0.733l-10.15,3.759c-0.64,0.237-0.967,0.95-0.73,1.593
			C44.699,44.123,45.172,44.433,45.674,44.433z M45.674,39.434c0.143,0,0.287-0.025,0.428-0.077l10.15-3.76
			c0.641-0.236,0.968-0.95,0.731-1.593c-0.236-0.642-0.946-0.971-1.587-0.733l-10.15,3.76c-0.64,0.237-0.967,0.95-0.73,1.593
			C44.699,39.124,45.172,39.434,45.674,39.434z M61.192,11.319L31.428,0.295c-0.276-0.104-0.58-0.104-0.855,0L0.808,11.319l0,0.001
			c-0.097,0.036-0.191,0.084-0.278,0.145C0.198,11.696,0,12.077,0,12.482v35.472c0,0.519,0.322,0.983,0.808,1.163l29.765,11.024
			c0.139,0.052,0.284,0.077,0.428,0.077c0.146,0,0.29-0.026,0.427-0.077h0l29.765-11.024C61.678,48.938,62,48.474,62,47.954V12.482
			C62,11.964,61.678,11.499,61.192,11.319z M29.765,57.2L2.47,47.09V14.262l5.558,2.059v15.021c0,0.52,0.322,0.983,0.808,1.164
			l13.338,4.94c0.139,0.051,0.284,0.076,0.427,0.076c0.25,0,0.497-0.075,0.707-0.223c0.331-0.231,0.529-0.611,0.529-1.018V22.176
			l5.928,2.195V57.2z M21.366,21.261v13.243l-10.868-4.026V17.234L21.366,21.261z M12.831,15.446l9.771-3.619l9.771,3.619
			l-9.771,3.619L12.831,15.446z M31,22.186l-4.844-1.794l10.211-3.782c0.486-0.18,0.809-0.645,0.809-1.163
			c0-0.52-0.322-0.983-0.809-1.163L23.029,9.342c-0.276-0.102-0.579-0.102-0.855,0L9.25,14.13l-4.447-1.647L31,2.778l26.197,9.704
			L31,22.186z M59.529,47.09L32.235,57.2V24.371l27.294-10.109V47.09z"/>
	</g>
</g>
</svg>
