<?xml version="1.0" encoding="utf-8"?>
<!-- Generator: Adobe Illustrator 16.0.0, SVG Export Plug-In . SVG Version: 6.00 Build 0)  -->
<!DOCTYPE svg PUBLIC "-//W3C//DTD SVG 1.1//EN" "http://www.w3.org/Graphics/SVG/1.1/DTD/svg11.dtd">
<svg version="1.1" id="Shape_1_1_" xmlns="http://www.w3.org/2000/svg" xmlns:xlink="http://www.w3.org/1999/xlink" x="0px" y="0px"
	 width="81px" height="77px" viewBox="0 0 81 77" enable-background="new 0 0 81 77" xml:space="preserve">
<g id="Shape_1">
	<g>
		<path fill-rule="evenodd" clip-rule="evenodd" fill="#656565" d="M61.623,15.401c0.336-0.368,0.625-0.757,0.867-1.168
			c0.863-1.459,1.513-3.917-0.291-7.339C59.789,2.318,56.898,0,53.611,0c-3.787,0-7.718,3.136-11.688,9.323
			c-0.508,0.795-0.984,1.585-1.423,2.349c-0.438-0.764-0.915-1.554-1.424-2.349C35.108,3.136,31.176,0,27.392,0
			c-3.288,0-6.179,2.318-8.59,6.895c-1.803,3.422-1.153,5.88-0.291,7.339c0.242,0.411,0.531,0.8,0.868,1.168H0v23.954h5.063V77h27
			h16.876h26.998V39.355H81V15.401H61.623z M32.063,73.577H8.438V39.355h23.625V73.577z M32.063,35.935H3.375V18.823h28.687V35.935z
			 M26.121,15.401c-2.401-0.771-4.034-1.774-4.715-2.927c-0.225-0.382-0.908-1.537,0.374-3.969c1.778-3.373,3.667-5.085,5.613-5.085
			c2.49,0,5.627,2.747,8.832,7.732c0.907,1.411,1.71,2.83,2.375,4.088c-0.026,0.055-0.052,0.107-0.078,0.16h-6.458H26.121z
			 M45.562,73.577H35.438V18.823h10.124V73.577z M42.482,15.401c-0.027-0.053-0.055-0.105-0.079-0.16
			c0.663-1.258,1.466-2.677,2.373-4.088c3.206-4.985,6.343-7.732,8.835-7.732c1.943,0,3.832,1.712,5.611,5.085
			c1.28,2.432,0.598,3.59,0.373,3.969c-0.68,1.152-2.314,2.155-4.714,2.927h-5.942H42.482z M72.563,73.577H48.939V39.355h23.624
			V73.577z M77.625,35.935H48.939V18.823h28.687V35.935z"/>
	</g>
</g>
</svg>
