<?xml version="1.0" encoding="utf-8"?>
<!-- Generator: Adobe Illustrator 16.0.0, SVG Export Plug-In . SVG Version: 6.00 Build 0)  -->
<!DOCTYPE svg PUBLIC "-//W3C//DTD SVG 1.1//EN" "http://www.w3.org/Graphics/SVG/1.1/DTD/svg11.dtd">
<svg version="1.1" id="Forma_1_1_" xmlns="http://www.w3.org/2000/svg" xmlns:xlink="http://www.w3.org/1999/xlink" x="0px" y="0px"
	 width="110px" height="63px" viewBox="0 0 110 63" enable-background="new 0 0 110 63" xml:space="preserve">
<g id="Forma_1">
	<g>
		<path fill-rule="evenodd" clip-rule="evenodd" fill="#656565" d="M106.156,28.486l-7.68-7.748L92.13,6.791
			C90.246,2.659,86.134-0.01,81.654-0.01H9.099c-5.021,0-9.104,4.146-9.104,9.244v35.532c0,4.719,3.776,8.553,8.42,8.557h6.282
			c0.851,5.479,5.519,9.684,11.153,9.684c5.628,0,10.299-4.21,11.15-9.688h36.871c0.85,5.479,5.518,9.688,11.149,9.688
			s10.304-4.21,11.154-9.688h5.396c4.645,0,8.424-3.834,8.428-8.553v-6.908C110,34.368,108.597,30.947,106.156,28.486z
			 M25.851,59.43c-4.291,0-7.782-3.543-7.782-7.898c0-4.357,3.491-7.902,7.782-7.902s7.778,3.545,7.778,7.902
			C33.629,55.887,30.142,59.43,25.851,59.43z M92.8,51.61c-0.042,4.319-3.515,7.82-7.779,7.82c-4.261,0-7.724-3.494-7.772-7.807
			c0.001-0.031,0.009-0.061,0.009-0.092s-0.008-0.061-0.009-0.092c0.049-4.314,3.512-7.811,7.772-7.811
			c4.265,0,7.737,3.503,7.779,7.824c-0.001,0.026-0.008,0.051-0.008,0.078S92.799,51.583,92.8,51.61z M106.472,44.766
			c0,2.744-2.197,4.977-4.9,4.977h-5.396c-0.85-5.482-5.519-9.691-11.154-9.691c-5.631,0-10.3,4.209-11.149,9.691H37
			c-0.85-5.482-5.519-9.691-11.15-9.691c-5.636,0-10.306,4.211-11.154,9.695H8.416c-2.702,0-4.897-2.232-4.897-4.977V9.234
			c0-3.123,2.505-5.667,5.581-5.667h72.555c3.111,0,5.968,1.854,7.275,4.726l6.479,14.237c0.092,0.193,0.211,0.369,0.359,0.519
			l7.901,7.974c1.782,1.8,2.804,4.289,2.804,6.835V44.766z M75.732,25.152H24.991c-0.972,0-1.761,0.802-1.761,1.789
			s0.789,1.788,1.761,1.788h50.741c0.973,0,1.762-0.801,1.762-1.788S76.705,25.152,75.732,25.152z"/>
	</g>
</g>
</svg>
