<?xml version="1.0" encoding="utf-8"?>
<!-- Generator: Adobe Illustrator 16.0.0, SVG Export Plug-In . SVG Version: 6.00 Build 0)  -->
<!DOCTYPE svg PUBLIC "-//W3C//DTD SVG 1.1//EN" "http://www.w3.org/Graphics/SVG/1.1/DTD/svg11.dtd">
<svg version="1.1" id="Forma_1_1_" xmlns="http://www.w3.org/2000/svg" xmlns:xlink="http://www.w3.org/1999/xlink" x="0px" y="0px"
	 width="74px" height="79px" viewBox="0 0 74 79" enable-background="new 0 0 74 79" xml:space="preserve">
<g id="Forma_1">
	<g>
		<path fill-rule="evenodd" clip-rule="evenodd" fill="#656565" d="M73.874,2.032c-0.075-1.149-1.166-2.105-2.325-2.038
			c-19.072,1.11-36.307,10.777-47.245,25.55c-6.832,0.649-13.041,3.761-17.599,8.875c-4.6,5.162-6.984,11.822-6.698,18.74
			c0.065,1.695,2.702,3.258,4.145,0.912c0.755-1.227,1.435-2.465,2.338-3.479c2.251-2.525,5.166-4.248,8.412-5.014
			c0.126,0.332,0.326,0.646,0.61,0.896l18.738,16.43c0.285,0.25,0.623,0.408,0.971,0.49c-0.368,3.289-1.732,6.371-3.984,8.896
			c-0.903,1.014-2.075,1.791-3.192,2.729c-2.333,1.955-0.031,4.113,1.421,3.969c6.954-0.598,13.326-3.732,17.925-8.895
			c4.542-5.129,6.923-11.625,6.72-18.414C67.533,39.114,75.104,20.945,73.874,2.032z M69.591,4.499
			c0.161,5.698-0.563,11.314-2.018,16.678L53.169,8.545C58.354,6.425,63.871,5.039,69.591,4.499z M5.318,45.649
			c0.919-3.055,2.51-5.883,4.692-8.332c2.946-3.306,6.731-5.626,10.952-6.759c-0.095,0.139-4.166,8.153-4.989,10.405
			C11.995,41.475,8.328,43.092,5.318,45.649z M44.086,67.196c-2.182,2.449-4.831,4.348-7.759,5.643
			c2.171-3.291,3.34-7.1,3.381-11.064c2.986-1.52,9.696-6.109,9.796-6.189C48.903,59.864,47.046,63.875,44.086,67.196z
			 M36.063,58.688L19.491,44.159c4.939-14.837,15.701-26.819,29.331-33.674l17.33,15.195C60.966,39.939,50.3,52.004,36.063,58.688z
			 M8.729,62.78l7.268-8.156c0.806-0.904,0.702-2.273-0.199-3.064c-0.917-0.805-2.297-0.709-3.09,0.18L5.44,59.895
			c-0.806,0.904-0.702,2.273,0.199,3.064C6.541,63.749,7.937,63.668,8.729,62.78z M22.964,59.954
			c0.438-0.838,0.25-1.893-0.509-2.557c-0.458-0.402-1.037-0.576-1.601-0.543c0,0,0,0-0.029,0.002
			c-0.357,0.02-0.721,0.145-1.051,0.355c-0.157,0.113-0.313,0.227-0.452,0.383L4.8,73.889c-0.111,0.125-0.207,0.264-0.286,0.416
			c-0.465,0.871-0.29,1.969,0.485,2.648s1.896,0.717,2.709,0.152c0.143-0.096,0.27-0.207,0.381-0.332l14.549-16.328
			C22.777,60.29,22.886,60.135,22.964,59.954z M29.112,63.233c-0.917-0.803-2.298-0.709-3.09,0.18l-7.268,8.156
			c-0.806,0.904-0.702,2.273,0.199,3.064s2.297,0.709,3.09-0.18l7.268-8.156C30.133,65.407,30.029,64.038,29.112,63.233z"/>
	</g>
</g>
</svg>
